<svg xmlns="http://www.w3.org/2000/svg" width="1052" height="1052" fill="none" viewBox="0 0 1052 1052">
  <path fill="#1C468A" d="M243.163 341.931c-77.2 12.133-144.134 53.467-189.334 116.667-24.8 34.8-41.466 73.866-50.266 118.533C.63 591.664.63 594.331.096 715.264c-.266 88.267 0 124.8 1.067 128.4 1.867 6.534 9.867 15.334 16.666 18.4 4.534 2.134 9.067 2.534 30.667 2.534 28.4 0 32.133-.934 40.267-9.467 8.8-9.333 8.4-3.2 8.4-123.733 0-64.667.533-114.8 1.333-122.934 9.734-98.133 91.334-171.866 190.4-171.866 29.334 0 68.534 13.333 100.8 34.266 15.2 9.867 25.334 11.867 39.467 7.6 6.4-1.866 9.333-4.266 25.067-19.6 19.733-19.333 23.333-24.8 23.333-34.933 0-12.933-7.067-21.333-31.067-37.333-31.466-21.067-69.6-36.267-108.666-43.467-21.867-4.133-72.534-4.8-94.667-1.2Zm482-.667c-48.8 6.934-96.133 26.267-134.4 54.934-13.733 10.4-39.733 35.733-50.933 49.733-35.467 44.533-57.6 99.867-62.667 156.667-.933 10.266-1.333 56-1.067 128.133l.4 112.133 4 6.534c2.534 4 6.534 8 10.534 10.533l6.533 4 25.467.4c21.066.4 26.266 0 31.066-1.733 7.6-2.934 13.2-7.734 16.8-14.534l2.934-5.466.8-122 .666-122 3.467-14c8.667-35.467 24.133-64 48.267-89.067 27.333-28.533 62.933-47.867 102.8-55.733 18.266-3.734 52.8-3.334 71.333.666 38.8 8.267 68.267 24.267 96.133 52 27.067 27.067 42.667 54.8 52.267 93.467 2.8 11.2 2.8 13.867 3.467 185.333.666 155.6 1.066 174.534 2.933 178.667 3.333 7.2 8.667 12.8 15.2 15.867 5.467 2.533 8.267 2.8 31.597 2.8 22.14 0 26.54-.4 31.2-2.534 6.54-3.066 14.27-11.733 16.27-18.666 2.13-6.8 2.27-326.534.27-346.934-5.34-54.266-24-102.533-56.404-146.533-10.933-14.667-35.866-40.667-50.266-52.4-36.8-29.733-81.467-49.867-131.334-59.067-16.4-2.933-69.733-3.733-87.333-1.2Z"/>
  <circle cx="267.121" cy="162.604" r="82.105" fill="#EE838F" stroke="#EE838F" stroke-width="9.659" transform="rotate(-25 267.121 162.604)"/>
  <mask id="a" fill="#fff">
    <path d="M395.382 110.267a125 125 0 1 1-52.688-56.5l-60.601 109.327 113.289-52.827Z"/>
  </mask>
  <path fill="#EE838F" stroke="#EE838F" stroke-width="20" d="M395.382 110.267a125 125 0 1 1-52.688-56.5l-60.601 109.327 113.289-52.827Z" mask="url(#a)"/>
  <circle cx="282.093" cy="163.094" r="117.5" stroke="#EE838F" stroke-width="15" transform="rotate(-25 282.093 163.094)"/>
  <circle cx="762.121" cy="162.604" r="82.105" fill="#EE838F" stroke="#EE838F" stroke-width="9.659" transform="rotate(-25 762.121 162.604)"/>
  <mask id="b" fill="#fff">
    <path d="M890.382 110.267a125 125 0 1 1-52.688-56.5l-60.601 109.327 113.289-52.827Z"/>
  </mask>
  <path fill="#EE838F" stroke="#EE838F" stroke-width="20" d="M890.382 110.267a125 125 0 1 1-52.688-56.5l-60.601 109.327 113.289-52.827Z" mask="url(#b)"/>
  <circle cx="777.093" cy="163.094" r="117.5" stroke="#EE838F" stroke-width="15" transform="rotate(-25 777.093 163.094)"/>
</svg>
