<svg xmlns="http://www.w3.org/2000/svg" width="496" height="348" fill="none" viewBox="0 0 496 348">
  <path fill="#002E47" d="M216.19 29.8v58.83l52.87 48V29.8h-52.87ZM36.91 26.82v288.01h52.87V155.02l179.28 162.79V237.4l-79.88-72.32L36.91 26.82Z"/>
  <path fill="#02B1CE" d="M136.31 207.1v107.73h52.87V255.1l-52.87-48ZM315.59 29.8v159.81L136.31 26.82v80.42l52.87 47.78 86.66 78.69.51.46 92.11 83.64V29.8h-52.87Z"/>
  <path fill="#002E47" d="M421.41 317.81c20.186 0 36.55-16.364 36.55-36.55 0-20.186-16.364-36.55-36.55-36.55-20.186 0-36.55 16.364-36.55 36.55 0 20.186 16.364 36.55 36.55 36.55Z"/>
</svg>
