<svg xmlns="http://www.w3.org/2000/svg" width="1100" height="1100" fill="none" viewBox="0 0 1100 1100">
  <g clip-path="url(#a)">
    <circle cx="550" cy="550" r="550" fill="#51ABB2"/>
    <circle cx="550.5" cy="549.5" r="492.5" stroke="#291B25" stroke-width="30"/>
    <path fill="#F14902" d="M208.098 360.92c-5.228 37.913 0 70.598 24.843 66.688 11.686-1.845 23.525-32.685 19.615-52.301-3.931-19.615-44.458-14.387-44.458-14.387Z"/>
    <path fill="#F6F6E9" d="M214.64 371.398c-5.228 37.913 1.318 54.914 13.07 53.596 11.774-1.318 18.297-28.775 14.387-48.368-3.931-19.616-27.457-5.228-27.457-5.228Z"/>
    <path fill="#F14902" d="M188.506 297.043c20.472-14.783 54.805-42.086 94.936-52.85 40.132-10.763 91.026-12.718 107.655-16.628 16.628-3.91 56.759-9.796 62.624 6.854 5.865 16.65 82.218 45.996 121.361 40.131 39.143-5.865 161.647-22.778 238.791 22.515 90.037 52.85 123.316 159.516 104.711 235.869-18.605 76.331-63.613 133.091-121.362 139.944-57.748 6.854-126.259 3.91-183.019-54.804-56.759-58.715-91.993-119.407-146.797-125.271-54.805-5.865-66.557-46.985-83.185-66.557-16.628-19.571-70.466-7.82-114.508-17.616-33.651-7.469-60.669-40.132-73.409-64.602-12.741-24.47-25.415-34.267-7.798-46.985Z"/>
    <path fill="#F6F6E9" d="M425.163 395.692c-54.409 0-105.194-40.9-105.194-40.9s-88.588 20.735-123.645-10.764c12.718 24.47 39.736 57.112 73.409 64.602 44.042 9.797 97.858-1.955 114.508 17.617 5.579 6.545 10.698 15.551 16.98 24.799 13.926-18.21 29.654-45.733 23.942-55.354Zm-.307-126.479s15.925 6.041 27.216-6.063c7.688-8.259 8.347-16.013 7.007-21.943-2.768-2.395-4.635-4.701-5.36-6.788l-.11-.154c-.615 7.732-4.744 25.261-28.753 34.948Zm112.707 172.959c-9.863 16.826-30.533 44.283-41.823 59 29.016 14.212 53.86 43.975 82.943 77.561 30.752-15.376 107.149-52.278 150.399-61.592-68.137-67.786-147.039-34.354-191.519-74.969Zm232.2 98.736c-9.621 4.152-13.223 79.868-14.585 134.497 14.409.066 28.533-.967 42.064-2.57 57.749-6.854 102.756-63.613 121.362-139.944 9.796-40.176 5.052-88.72-14.608-133.443 10.566 104.228-93.464 146.952-134.233 141.46Z"/>
    <path fill="#291B25" d="M169.238 316.945c-3.58-21.856 24.141-29.039 30.027-17.288 5.865 11.752 19.242 55.464 7.82 55.135-13.992-.418-33.058-8.809-37.847-37.847ZM703.27 508.421c-34.377-7.71-113.519-11.752-132.124 32.289-3.164 7.491-3.91 16.365-3.164 25.656 14.234 16.387 29.259 34.113 46.238 51.664 52.718 54.541 95.771 56.716 150.708 51.861 11.554-20.714 31.016-49.467 26.425-74.376-6.854-37.166-31.323-74.354-88.083-87.094Z"/>
    <path fill="#F14902" d="M706.216 512.352c-58.714-6.853-107.654 7.82-129.181 39.143-21.526 31.323 8.809 86.128 66.557 105.7 0 0-76.331 3.91-86.128 16.628-9.797 12.718-9.797 36.221 3.91 37.188 13.706.988 158.549-12.718 196.704-17.617 38.176-4.898 46.985-61.658 40.131-98.846-6.853-37.188-35.475-75.606-91.993-82.196Z"/>
    <path fill="#291B25" d="M474.918 395.429c-29.369-6.854-59.045-3.581-63.943 26.754-1.933 11.905-5.579 26.688-7.183 35.892 12.631 19.242 25.085 30.576 63.613 34.706 13.224 1.428 25.305 6.085 36.837 13.092 9.599-13.927 17.66-29.632 21.878-45.382 9.445-35.123-21.834-58.209-51.202-65.062Z"/>
    <path fill="#F14902" d="M403.814 416.428c-4.722 29.346-4.657 49.73-18.605 64.601-14.673 15.662-41.098 25.436-62.624 26.425-21.527.988-39.143 20.56-39.143 42.086 0 21.527 16.628 32.29 27.413 34.245 16.826 3.053 34.245 3.91 18.605-11.752-15.662-15.661-1.977-31.521 15.662-32.289 22.514-.989 65.567-.989 89.049-10.764 23.481-9.796 70.95-38.879 91.993-68.511 52.85-74.376-18.605-68.511-47.952-75.365-29.39-6.831-69.521.989-74.398 31.324Z"/>
    <path fill="#291B25" d="M397.945 244.501c10.016-15.024 57.748-13.706 38.176 3.91-19.571 17.617-55.793 22.515-38.176-3.91Zm-85.775 62.581c12.131 0 21.966-9.834 21.966-21.966 0-12.131-9.835-21.966-21.966-21.966-12.132 0-21.966 9.835-21.966 21.966 0 12.132 9.834 21.966 21.966 21.966Zm533.989 267.895c27.084-5.074 87.094 48.939 77.32 118.417-9.797 69.478-80.242 129.181-156.595 154.64-76.353 25.458-276.967 35.233-355.253 6.853-78.286-28.38-62.624-97.858 0-125.271 62.625-27.413 150.708-37.188 250.542-35.233 78.33 1.537 154.64-37.188 150.708-60.67-3.91-23.503 1.955-52.871 33.278-58.736Z"/>
    <path fill="#F14902" d="M857.911 619.018c22.515 41.098 9.27 107.984-84.173 139.944-74.376 25.437-149.214 18.122-206.501 19.572-43.053 1.098-81.229 4.898-101.789 8.808 0 0 36.463-14.871 95.903-18.605 49.95-3.119 149.323-2.987 185.94-14.673 138.011-44.019 110.62-135.046 110.62-135.046Z"/>
  </g>
  <defs>
    <clipPath id="a">
      <path fill="#fff" d="M0 0h1100v1100H0z"/>
    </clipPath>
  </defs>
</svg>
