{"accessors" : [{"bufferView" : 0, "byteOffset" : 0, "componentType" : 5123, "count" : 921, "type" : "SCALAR", "max" : [918], "min" : [0]}, {"bufferView" : 1, "byteOffset" : 0, "componentType" : 5126, "count" : 919, "type" : "VEC3", "max" : [659.3987426757812, 412.1398620605469, 282.4917297363281], "min" : [345.9568786621094, 1.7324814796447754, -670.2392578125], "name" : "POSITION"}, {"bufferView" : 1, "byteOffset" : 12, "componentType" : 5126, "count" : 919, "type" : "VEC3", "max" : [0.9993426203727722, 0.9849241375923157, 0.9160997271537781], "min" : [-0.9417481422424316, -0.9938082695007324, -0.8781864047050476], "name" : "NORMAL"}, {"bufferView" : 1, "byteOffset" : 24, "componentType" : 5126, "count" : 919, "type" : "VEC2", "max" : [0.06868598610162735, 0.038250066339969635], "min" : [-0.12814834713935852, -0.07835660874843597], "name" : "TEXCOORD_0"}, {"bufferView" : 0, "byteOffset" : 1844, "componentType" : 5123, "count" : 81, "type" : "SCALAR", "max" : [80], "min" : [0]}, {"bufferView" : 2, "byteOffset" : 0, "componentType" : 5126, "count" : 81, "type" : "VEC3", "max" : [584.9588012695312, 185.9066925048828, -279.3356018066406], "min" : [408.1150817871094, 88.60748291015625, -670.2392578125], "name" : "POSITION"}, {"bufferView" : 2, "byteOffset" : 12, "componentType" : 5126, "count" : 81, "type" : "VEC3", "max" : [0.822191059589386, 0.8887720704078674, 0.2662244439125061], "min" : [-0.8050282597541809, -0.9409687519073486, -0.41572657227516174], "name" : "NORMAL"}, {"bufferView" : 2, "byteOffset" : 24, "componentType" : 5126, "count" : 81, "type" : "VEC2", "max" : [0.12817302346229553, 0.0587410144507885], "min" : [-0.12764328718185425, -0.13320574164390564], "name" : "TEXCOORD_0"}, {"bufferView" : 0, "byteOffset" : 2008, "componentType" : 5123, "count" : 36, "type" : "SCALAR", "max" : [35], "min" : [0]}, {"bufferView" : 3, "byteOffset" : 0, "componentType" : 5126, "count" : 36, "type" : "VEC3", "max" : [541.3167114257812, 345.2490234375, 282.4917297363281], "min" : [453.866455078125, 288.93212890625, 199.69091796875], "name" : "POSITION"}, {"bufferView" : 3, "byteOffset" : 12, "componentType" : 5126, "count" : 36, "type" : "VEC3", "max" : [0.9518340229988098, 0.33426058292388916, 0.7847869396209717], "min" : [-0.5711122155189514, -0.24072618782520294, 0.2757522463798523], "name" : "NORMAL"}, {"bufferView" : 3, "byteOffset" : 24, "componentType" : 5126, "count" : 36, "type" : "VEC2", "max" : [0.056975629180669785, -0.04132756218314171], "min" : [-0.05697563663125038, -0.0786898285150528], "name" : "TEXCOORD_0"}, {"bufferView" : 0, "byteOffset" : 2080, "componentType" : 5123, "count" : 12, "type" : "SCALAR", "max" : [11], "min" : [0]}, {"bufferView" : 4, "byteOffset" : 0, "componentType" : 5126, "count" : 12, "type" : "VEC3", "max" : [517.3956298828125, 279.45526123046875, 271.7004699707031], "min" : [477.7875671386719, 258.9381408691406, 245.98399353027344], "name" : "POSITION"}, {"bufferView" : 4, "byteOffset" : 12, "componentType" : 5126, "count" : 12, "type" : "VEC3", "max" : [0.3753564953804016, -0.5785389542579651, 0.691032350063324], "min" : [-0.4338986575603485, -0.6177303194999695, 0.6906760931015015], "name" : "NORMAL"}, {"bufferView" : 4, "byteOffset" : 24, "componentType" : 5126, "count" : 12, "type" : "VEC2", "max" : [0.04415725916624069, -0.06287692487239838], "min" : [-0.0441572479903698, -0.07011044025421143], "name" : "TEXCOORD_0"}, {"bufferView" : 0, "byteOffset" : 2104, "componentType" : 5123, "count" : 240, "type" : "SCALAR", "max" : [165], "min" : [0]}, {"bufferView" : 5, "byteOffset" : 0, "componentType" : 5126, "count" : 166, "type" : "VEC3", "max" : [684.6000366210938, 140.31004333496094, 207.87570190429688], "min" : [346.9632568359375, -0.8977062106132507, 66.7357177734375], "name" : "POSITION"}, {"bufferView" : 5, "byteOffset" : 12, "componentType" : 5126, "count" : 166, "type" : "VEC3", "max" : [0.9997872114181519, 0.8307518362998962, 0.8586682081222534], "min" : [-0.9878129363059998, -0.5125405192375183, -0.5566339492797852], "name" : "NORMAL"}, {"bufferView" : 5, "byteOffset" : 24, "componentType" : 5126, "count" : 166, "type" : "VEC2", "max" : [87.27058410644531, 14.006287574768066], "min" : [-158.1537322998047, -33.24868392944336], "name" : "TEXCOORD_0"}, {"bufferView" : 0, "byteOffset" : 2584, "componentType" : 5123, "count" : 588, "type" : "SCALAR", "max" : [492], "min" : [0]}, {"bufferView" : 6, "byteOffset" : 0, "componentType" : 5126, "count" : 493, "type" : "VEC3", "max" : [684.6000366210938, 140.31004333496094, 207.87570190429688], "min" : [346.9632568359375, -0.8977062106132507, 66.7357177734375], "name" : "POSITION"}, {"bufferView" : 6, "byteOffset" : 12, "componentType" : 5126, "count" : 493, "type" : "VEC3", "max" : [0.9093919992446899, 0.9843003153800964, 0.701525092124939], "min" : [-0.8920488953590393, -0.9817922115325928, -0.8586682081222534], "name" : "NORMAL"}, {"bufferView" : 6, "byteOffset" : 24, "componentType" : 5126, "count" : 493, "type" : "VEC2", "max" : [175.6165313720703, 174.40843200683594], "min" : [-176.8166046142578, -99.70509338378906], "name" : "TEXCOORD_0"}], "asset" : {"generator" : "Aspose.3D 21.10", "version" : "2.0"}, "buffers" : [{"uri" : "data:application/octet-stream;base64,", "byteLength" : 63884}], "bufferViews" : [{"buffer" : 0, "byteOffset" : 0, "byteLength" : 3760, "target" : 34963}, {"buffer" : 0, "byteOffset" : 3764, "byteLength" : 29472, "byteStride" : 32, "target" : 34962}, {"buffer" : 0, "byteOffset" : 33240, "byteLength" : 2592, "byteStride" : 32, "target" : 34962}, {"buffer" : 0, "byteOffset" : 35836, "byteLength" : 1152, "byteStride" : 32, "target" : 34962}, {"buffer" : 0, "byteOffset" : 36992, "byteLength" : 384, "byteStride" : 32, "target" : 34962}, {"buffer" : 0, "byteOffset" : 37380, "byteLength" : 7680, "byteStride" : 32, "target" : 34962}, {"buffer" : 0, "byteOffset" : 45064, "byteLength" : 18816, "byteStride" : 32, "target" : 34962}], "materials" : [{"name" : "", "pbrMetallicRoughness" : {"baseColorFactor" : [0.6000000000000001, 0.35686274509803906, 0.11764705882352902, 1], "metallicFactor" : 0, "roughnessFactor" : 0}, "emissiveFactor" : [0, 0, 0], "alphaMode" : "OPAQUE", "doubleSided" : false}, {"name" : "", "pbrMetallicRoughness" : {"baseColorFactor" : [0.30980392156862707, 0.15294117647058803, 0.03921568627450981, 1], "metallicFactor" : 0, "roughnessFactor" : 0}, "emissiveFactor" : [0, 0, 0], "alphaMode" : "OPAQUE", "doubleSided" : false}, {"name" : "", "pbrMetallicRoughness" : {"baseColorFactor" : [0, 0, 0, 1], "metallicFactor" : 0, "roughnessFactor" : 0}, "emissiveFactor" : [0, 0, 0], "alphaMode" : "OPAQUE", "doubleSided" : false}, {"name" : "", "pbrMetallicRoughness" : {"baseColorFactor" : [1, 1, 1, 1], "metallicFactor" : 0, "roughnessFactor" : 0}, "emissiveFactor" : [0, 0, 0], "alphaMode" : "OPAQUE", "doubleSided" : false}, {"name" : "", "pbrMetallicRoughness" : {"baseColorFactor" : [0.729411764705882, 0.5254901960784311, 0.32549019607843105, 1], "metallicFactor" : 0, "roughnessFactor" : 0}, "emissiveFactor" : [0, 0, 0], "alphaMode" : "OPAQUE", "doubleSided" : false}, {"name" : "", "pbrMetallicRoughness" : {"baseColorFactor" : [0.30980392156862707, 0.15294117647058803, 0.03921568627450981, 1], "metallicFactor" : 0, "roughnessFactor" : 0}, "emissiveFactor" : [0, 0, 0], "alphaMode" : "OPAQUE", "doubleSided" : false}], "meshes" : [{"primitives" : [{"attributes" : {"POSITION" : 1, "NORMAL" : 2, "TEXCOORD_0" : 3}, "indices" : 0, "material" : 0, "mode" : 4}, {"attributes" : {"POSITION" : 5, "NORMAL" : 6, "TEXCOORD_0" : 7}, "indices" : 4, "material" : 1, "mode" : 4}, {"attributes" : {"POSITION" : 9, "NORMAL" : 10, "TEXCOORD_0" : 11}, "indices" : 8, "material" : 2, "mode" : 4}, {"attributes" : {"POSITION" : 13, "NORMAL" : 14, "TEXCOORD_0" : 15}, "indices" : 12, "material" : 3, "mode" : 4}], "name" : ""}, {"primitives" : [{"attributes" : {"POSITION" : 17, "NORMAL" : 18, "TEXCOORD_0" : 19}, "indices" : 16, "material" : 4, "mode" : 4}, {"attributes" : {"POSITION" : 21, "NORMAL" : 22, "TEXCOORD_0" : 23}, "indices" : 20, "material" : 5, "mode" : 4}], "name" : ""}], "nodes" : [{"mesh" : 0, "name" : "Mesh1"}, {"children" : [0], "name" : "G_0Editable_Mesh_00_1_1"}, {"mesh" : 1, "name" : "Mesh2"}, {"children" : [2], "name" : "Group1"}, {"children" : [3], "name" : "Low_Poly_Wood_Log1"}, {"children" : [1, 4], "name" : "Model"}], "scene" : 0, "scenes" : [{"nodes" : [5]}]}