<svg width="100" height="100" viewBox="0 0 100 100" fill="none" xmlns="http://www.w3.org/2000/svg">
<path d="M100 50C100 77.6142 77.6142 100 50 100C22.3858 100 0 77.6142 0 50C0 22.3858 22.3858 0 50 0C77.6142 0 100 22.3858 100 50ZM17.4533 50C17.4533 67.9751 32.0249 82.5467 50 82.5467C67.9751 82.5467 82.5467 67.9751 82.5467 50C82.5467 32.0249 67.9751 17.4533 50 17.4533C32.0249 17.4533 17.4533 32.0249 17.4533 50Z" fill="#291B25"/>
<path d="M100 50C100 77.6142 77.6142 100 50 100C22.3858 100 0 77.6142 0 50C0 22.3858 22.3858 0 50 0C77.6142 0 100 22.3858 100 50ZM17.4533 50C17.4533 67.9751 32.0249 82.5467 50 82.5467C67.9751 82.5467 82.5467 67.9751 82.5467 50C82.5467 32.0249 67.9751 17.4533 50 17.4533C32.0249 17.4533 17.4533 32.0249 17.4533 50Z" fill="#291B25"/>
<path d="M50 36V64" stroke="#291B25" stroke-width="20" stroke-linecap="round"/>
<path d="M46 38H54M46 46H54M46 54H54M46 62H54" stroke="#DACAA4" stroke-width="2" stroke-linecap="round"/>
<path d="M50 6C48.3082 6 25.1502 19.2423 24.0412 19.9729C25.0218 19.3278 43.2541 9.39394 50 9.39394C56.7459 9.39394 74.9782 19.3278 75.9588 19.9729C74.8498 19.2423 51.6918 6 50 6Z" fill="#DACAA4"/>
<path d="M24 20C24 20 24.0139 19.9908 24.0412 19.9729M76 20C76 20 75.9861 19.9908 75.9588 19.9729M24.0412 19.9729C25.1502 19.2423 48.3082 6 50 6C51.6918 6 74.8498 19.2423 75.9588 19.9729M24.0412 19.9729C25.0218 19.3278 43.2541 9.39394 50 9.39394C56.7459 9.39394 74.9782 19.3278 75.9588 19.9729" stroke="#DACAA4" stroke-width="2" stroke-linecap="round" stroke-linejoin="round"/>
<path d="M50 94C51.6918 94 74.8498 80.7577 75.9588 80.0271C74.9782 80.6722 56.7459 90.6061 50 90.6061C43.2541 90.6061 25.0218 80.6722 24.0412 80.0271C25.1502 80.7577 48.3082 94 50 94Z" fill="#DACAA4"/>
<path d="M76 80C76 80 75.9861 80.0092 75.9588 80.0271M24 80C24 80 24.0139 80.0092 24.0412 80.0271M75.9588 80.0271C74.8498 80.7577 51.6918 94 50 94C48.3082 94 25.1502 80.7577 24.0412 80.0271M75.9588 80.0271C74.9782 80.6722 56.7459 90.6061 50 90.6061C43.2541 90.6061 25.0218 80.6722 24.0412 80.0271" stroke="#DACAA4" stroke-width="2" stroke-linecap="round" stroke-linejoin="round"/>
</svg>
