<svg width="54" height="32" viewBox="0 0 54 32" fill="none" xmlns="http://www.w3.org/2000/svg">
<path d="M27 15C28.6918 15 51.8498 1.75774 52.9588 1.02713C51.9782 1.67224 33.7459 11.6061 27 11.6061C20.2541 11.6061 2.02182 1.67224 1.04117 1.02713C2.15022 1.75774 25.3082 15 27 15Z" fill="#291B25"/>
<path d="M53 1C53 1 52.9861 1.00921 52.9588 1.02713M1 1C1 1 1.01393 1.00921 1.04117 1.02713M52.9588 1.02713C51.8498 1.75773 28.6918 15 27 15C25.3082 15 2.15022 1.75773 1.04117 1.02713M52.9588 1.02713C51.9782 1.67224 33.7459 11.6061 27 11.6061C20.2541 11.6061 2.02182 1.67224 1.04117 1.02713" stroke="#291B25" stroke-width="2" stroke-linecap="round" stroke-linejoin="round"/>
<path d="M27 31C28.6918 31 51.8498 17.7577 52.9588 17.0271C51.9782 17.6722 33.7459 27.6061 27 27.6061C20.2541 27.6061 2.02182 17.6722 1.04117 17.0271C2.15022 17.7577 25.3082 31 27 31Z" fill="#291B25"/>
<path d="M53 17C53 17 52.9861 17.0092 52.9588 17.0271M1 17C1 17 1.01393 17.0092 1.04117 17.0271M52.9588 17.0271C51.8498 17.7577 28.6918 31 27 31C25.3082 31 2.15022 17.7577 1.04117 17.0271M52.9588 17.0271C51.9782 17.6722 33.7459 27.6061 27 27.6061C20.2541 27.6061 2.02182 17.6722 1.04117 17.0271" stroke="#291B25" stroke-width="2" stroke-linecap="round" stroke-linejoin="round"/>
</svg>
