<svg xmlns="http://www.w3.org/2000/svg" width="400" height="400" fill="none" viewBox="0 0 400 400">
  <g clip-path="url(#a)">
    <path fill="#F14902" d="M390 200c0 104.934-85.066 190-190 190S10 304.934 10 200 95.066 10 200 10s190 85.066 190 190Zm-338.2 0c0 81.849 66.351 148.2 148.2 148.2 81.849 0 148.2-66.351 148.2-148.2 0-81.849-66.351-148.2-148.2-148.2-81.849 0-148.2 66.351-148.2 148.2Z"/>
    <path fill="#F14902" d="M212 2c.5-2 .5-2 2.5-1.85 4.004.3 17.5 1.9 22.5 2.7 2.165.346 2.2.345 2.2 2.15v9.268L210 10.5s1.074-4.794 2-8.5Zm-22.4 387.5-1.7 8.5c-.4 2-.4 2-2.4 1.9-9.028-.451-14.061-1.259-23-2.6-2-.3-2-.3-1.9-2.3.125-2.499.4-9.1.4-9.1l28.6 3.6Z"/>
    <circle cx="224" cy="31" r="6" fill="#DACAA4"/>
    <circle cx="176" cy="369" r="6" fill="#DACAA4"/>
    <path fill="#F14902" d="M160.338 5.611c-.035-2.061-.035-2.061 1.936-2.434 3.945-.746 17.395-2.694 22.432-3.215 2.18-.226 2.215-.236 2.682 1.507l2.398 8.952-29.18 3.918s-.204-4.908-.268-8.728Zm78.656 380.094.558 8.65c.131 2.036.131 2.036-1.827 2.457-8.837 1.9-13.908 2.423-22.889 3.441-2.01.228-2.01.228-2.431-1.73-.526-2.446-1.969-8.893-1.969-8.893l28.558-3.925Z"/>
    <circle cx="179.435" cy="30.517" r="6" fill="#DACAA4" transform="rotate(-15 179.435 30.517)"/>
    <circle cx="220.551" cy="369.423" r="6" fill="#DACAA4" transform="rotate(-15 220.551 369.423)"/>
    <path fill="#F14902" d="M111.371 22.47c-.567-1.982-.567-1.982 1.24-2.852 3.617-1.742 16.105-7.104 20.835-8.911 2.048-.783 2.078-.802 2.981.761l4.634 8.026-27.172 11.338s-1.467-4.689-2.518-8.362Zm174.351 346.785 2.778 8.211c.653 1.933.653 1.933-1.129 2.846-8.044 4.123-12.806 5.94-21.219 9.248-1.882.74-1.882.74-2.795-1.042a1780.81 1780.81 0 0 0-4.203-8.081l26.568-11.182Z"/>
    <circle cx="136.263" cy="41.585" r="6" fill="#DACAA4" transform="rotate(-30 136.263 41.585)"/>
    <circle cx="263.694" cy="358.302" r="6" fill="#DACAA4" transform="rotate(-30 263.694 358.302)"/>
    <path fill="#F14902" d="M68.435 51.429c-1.06-1.768-1.06-1.768.46-3.076 3.043-2.619 13.717-11.03 17.819-14 1.775-1.286 1.8-1.312 3.076-.036l6.553 6.553L73.03 58.853s-2.63-4.148-4.596-7.424ZM326.6 341.272l4.808 7.212c1.131 1.698 1.131 1.698-.354 3.041-6.703 6.065-10.832 9.052-18.102 14.425-1.626 1.202-1.626 1.202-2.969-.283-1.679-1.855-6.152-6.717-6.152-6.717l22.769-17.678Z"/>
    <circle cx="97.426" cy="63.45" r="6" fill="#DACAA4" transform="rotate(-45 97.426 63.45)"/>
    <circle cx="302.487" cy="336.393" r="6" fill="#DACAA4" transform="rotate(-45 302.487 336.393)"/>
    <path fill="#F14902" d="M34.458 90.513c-1.483-1.433-1.483-1.433-.353-3.09 2.262-3.317 10.396-14.205 13.589-18.135 1.382-1.702 1.398-1.733 2.962-.83l8.026 4.633-17.863 23.404s-3.615-3.326-6.361-5.982Zm324.384 213.149 6.512 5.722c1.532 1.347 1.532 1.347.445 3.029-4.905 7.593-8.121 11.547-13.752 18.618-1.26 1.583-1.26 1.583-2.941.496a1757.132 1757.132 0 0 0-7.681-4.897l17.417-22.968Z"/>
    <circle cx="65.572" cy="94.621" r="6" fill="#DACAA4" transform="rotate(-60 65.572 94.62)"/>
    <circle cx="334.289" cy="305.19" r="6" fill="#DACAA4" transform="rotate(-60 334.289 305.19)"/>
    <path fill="#F14902" d="M11.754 137.06c-1.802-1.001-1.802-1.001-1.14-2.894 1.326-3.79 6.365-16.412 8.432-21.034.894-2.002.902-2.036 2.646-1.569l8.952 2.398-11.197 27.23s-4.353-2.277-7.693-4.131Zm368.499 121.929 7.77 3.842c1.828.904 1.828.904 1.214 2.81-2.772 8.603-4.855 13.255-8.464 21.543-.807 1.854-.807 1.854-2.713 1.24a1721.3 1721.3 0 0 0-8.687-2.742l10.88-26.693Z"/>
    <circle cx="42.872" cy="132.974" r="6" fill="#DACAA4" transform="rotate(-75 42.872 132.974)"/>
    <circle cx="356.931" cy="266.82" r="6" fill="#DACAA4" transform="rotate(-75 356.931 266.82)"/>
    <path fill="#F14902" d="M1.871 187.896c-2-.5-2-.5-1.85-2.5.3-4.004 1.9-17.5 2.7-22.5.346-2.164.345-2.2 2.15-2.2h9.268l-3.768 29.2s-4.794-1.073-8.5-2Zm387.5 22.4 8.5 1.7c2 .4 2 .4 1.9 2.4-.452 9.028-1.259 14.061-2.6 23-.3 2-.3 2-2.3 1.9-2.499-.125-9.1-.4-9.1-.4l3.6-28.6Z"/>
    <circle cx="30.871" cy="175.896" r="6" fill="#DACAA4" transform="rotate(-90 30.871 175.896)"/>
    <circle cx="368.871" cy="223.896" r="6" fill="#DACAA4" transform="rotate(-90 368.871 223.896)"/>
    <path fill="#F14902" d="M5.482 239.558c-2.061.035-2.061.035-2.434-1.935-.746-3.946-2.694-17.396-3.216-22.432-.225-2.181-.236-2.215 1.508-2.682l8.952-2.399 3.918 29.18s-4.908.204-8.728.268Zm380.094-78.655 8.65-.558c2.035-.131 2.035-.131 2.456 1.827 1.901 8.837 2.423 13.907 3.442 22.889.228 2.009.228 2.009-1.73 2.43-2.446.526-8.893 1.969-8.893 1.969l-3.925-28.557Z"/>
    <circle cx="30.388" cy="220.462" r="6" fill="#DACAA4" transform="rotate(-105 30.388 220.462)"/>
    <circle cx="369.294" cy="179.345" r="6" fill="#DACAA4" transform="rotate(-105 369.294 179.345)"/>
    <path fill="#F14902" d="M22.341 288.526c-1.982.567-1.982.567-2.852-1.24-1.742-3.618-7.105-16.105-8.912-20.836-.782-2.047-.8-2.078.762-2.98l8.026-4.634 11.337 27.172s-4.688 1.467-8.36 2.518Zm346.785-174.351 8.211-2.778c1.932-.653 1.932-.653 2.846 1.129 4.123 8.044 5.94 12.806 9.248 21.218.74 1.882.74 1.882-1.042 2.796a1727.164 1727.164 0 0 0-8.081 4.203l-11.182-26.568Z"/>
    <circle cx="41.456" cy="263.634" r="6" fill="#DACAA4" transform="rotate(-120 41.456 263.634)"/>
    <circle cx="358.173" cy="136.203" r="6" fill="#DACAA4" transform="rotate(-120 358.173 136.203)"/>
    <path fill="#F14902" d="M51.3 331.461c-1.768 1.061-1.768 1.061-3.076-.459-2.62-3.044-11.031-13.718-14.001-17.819-1.286-1.776-1.312-1.8-.036-3.076l6.554-6.554 17.983 23.312s-4.149 2.631-7.425 4.596ZM341.142 73.297l7.213-4.809c1.697-1.131 1.697-1.131 3.041.354 6.064 6.703 9.052 10.833 14.425 18.102 1.202 1.626 1.202 1.626-.283 2.97-1.856 1.678-6.718 6.151-6.718 6.151l-17.678-22.768Z"/>
    <circle cx="63.32" cy="302.47" r="6" fill="#DACAA4" transform="rotate(-135 63.32 302.47)"/>
    <circle cx="336.264" cy="97.409" r="6" fill="#DACAA4" transform="rotate(-135 336.264 97.409)"/>
    <path fill="#F14902" d="M90.384 365.439c-1.433 1.482-1.433 1.482-3.09.352-3.317-2.262-14.205-10.396-18.136-13.588-1.7-1.383-1.732-1.399-.83-2.962l4.634-8.026 23.404 17.862s-3.326 3.615-5.982 6.362ZM303.533 41.054l5.722-6.511c1.347-1.532 1.347-1.532 3.029-.446 7.592 4.905 11.547 8.121 18.618 13.752 1.582 1.26 1.582 1.26.496 2.942-1.358 2.101-4.897 7.68-4.897 7.68l-22.968-17.417Z"/>
    <circle cx="94.492" cy="334.324" r="6" fill="#DACAA4" transform="rotate(-150 94.492 334.324)"/>
    <circle cx="305.061" cy="65.607" r="6" fill="#DACAA4" transform="rotate(-150 305.061 65.607)"/>
    <path fill="#F14902" d="M136.93 388.142c-1 1.803-1 1.803-2.893 1.14-3.79-1.326-16.412-6.364-21.035-8.431-2.001-.895-2.036-.903-1.569-2.646l2.399-8.952 27.23 11.197s-2.278 4.352-4.132 7.692ZM258.859 19.644l3.842-7.77c.904-1.829.904-1.829 2.81-1.215 8.604 2.773 13.256 4.856 21.544 8.465 1.854.807 1.854.807 1.24 2.713-.768 2.381-2.742 8.686-2.742 8.686l-26.694-10.88Z"/>
    <circle cx="132.845" cy="357.025" r="6" fill="#DACAA4" transform="rotate(-165 132.845 357.025)"/>
    <circle cx="266.69" cy="42.965" r="6" fill="#DACAA4" transform="rotate(-165 266.69 42.965)"/>
    <path fill="#F14902" d="M228 199.5c0 15.188-12.312 27.5-27.5 27.5S173 214.688 173 199.5s12.312-27.5 27.5-27.5 27.5 12.312 27.5 27.5Zm-44 0c0 9.113 7.387 16.5 16.5 16.5s16.5-7.387 16.5-16.5-7.387-16.5-16.5-16.5-16.5 7.387-16.5 16.5Z"/>
    <path fill="#F14902" d="M298 199.5c0 53.848-43.652 97.5-97.5 97.5S103 253.348 103 199.5s43.652-97.5 97.5-97.5 97.5 43.652 97.5 97.5Zm-180.375 0c0 45.771 37.104 82.875 82.875 82.875s82.875-37.104 82.875-82.875-37.104-82.875-82.875-82.875-82.875 37.104-82.875 82.875Z"/>
    <path fill="#F14902" d="M349.429 213.073a149.998 149.998 0 0 1-5.096 27.769l-125.57-35.533c.334-1.179.556-2.388.663-3.609l130.003 11.373Zm-38.528-70.743a150.063 150.063 0 0 1 5.677 27.656L186.841 184.08a19.438 19.438 0 0 0-.738-3.596l124.798-38.154Z"/>
    <path fill="#F14902" d="M286.036 77.127a149.982 149.982 0 0 1 21.501 18.298l-93.557 90.98a19.58 19.58 0 0 0-2.795-2.379l74.851-106.899Zm-80.53-2.005a149.988 149.988 0 0 1 26.79 8.912l-52.663 119.402a19.5 19.5 0 0 0-3.483-1.159l29.356-127.155Z"/>
    <path fill="#F14902" d="M136.607 64.054a150.012 150.012 0 0 1 26.596-9.47l32.013 126.512a19.548 19.548 0 0 0-3.458 1.231L136.607 64.054Zm-42.002 68.738a149.986 149.986 0 0 1 21.112-18.744l77.074 105.308a19.483 19.483 0 0 0-2.744 2.437l-95.442-89.001Z"/>
    <path fill="#F14902" d="M50.57 186.927a149.991 149.991 0 0 1 5.097-27.769l125.569 35.533a19.483 19.483 0 0 0-.662 3.609L50.57 186.927Zm38.529 70.743a149.98 149.98 0 0 1-5.677-27.656l129.736-14.094c.133 1.219.38 2.423.738 3.596L89.099 257.67Z"/>
    <path fill="#F14902" d="M113.964 322.873a149.945 149.945 0 0 1-21.5-18.298l93.556-90.98a19.58 19.58 0 0 0 2.795 2.379l-74.851 106.899Zm80.53 2.005a150.026 150.026 0 0 1-26.79-8.911l52.663-119.403a19.5 19.5 0 0 0 3.483 1.159l-29.356 127.155Z"/>
    <path fill="#F14902" d="M263.393 335.946a150.019 150.019 0 0 1-26.597 9.471l-32.013-126.513a19.44 19.44 0 0 0 3.458-1.231l55.152 118.273Zm42.001-68.738a149.943 149.943 0 0 1-21.112 18.744l-77.074-105.308a19.49 19.49 0 0 0 2.745-2.437l95.441 89.001Z"/>
  </g>
  <defs>
    <clipPath id="a">
      <path fill="#fff" d="M0 0h400v400H0z"/>
    </clipPath>
  </defs>
</svg>
